<?xml version="1.0" encoding="UTF-8" ?>
<!DOCTYPE svg PUBLIC "-//W3C//DTD SVG 1.1//EN" "http://www.w3.org/Graphics/SVG/1.1/DTD/svg11.dtd">
<svg width="250px" height="80px" viewBox="0 0 250 80" version="1.1" xmlns="http://www.w3.org/2000/svg">
<g transform="translate(147,-1) scale(0.22)">
<g id="#fdfbf7ff">
<path fill="#fdfbf7" opacity="1.00" d=" M 250.00 5.00 C 327.78 -2.76 404.56 44.15 430.99 117.03 C 437.98 133.12 412.15 123.40 403.00 126.00 C 392.61 106.31 374.29 76.47 354.00 64.00 C 323.23 39.49 272.33 28.85 234.00 40.00 C 176.52 51.21 124.20 113.65 125.00 173.00 C 116.30 176.51 85.02 185.91 94.00 164.00 C 96.12 110.73 135.27 49.52 186.00 25.00 C 204.92 13.90 227.92 8.45 250.00 5.00 M 217.91 15.91 C 174.79 27.80 137.32 59.29 117.01 99.02 C 104.14 121.83 96.76 148.69 97.08 175.07 C 104.98 173.38 114.34 173.27 121.14 171.15 C 124.14 96.23 190.98 32.02 265.91 31.81 C 277.91 32.16 289.91 33.39 301.64 36.01 C 308.84 37.36 315.57 40.35 322.65 42.13 C 329.02 45.24 335.48 48.17 341.88 51.22 C 346.52 54.48 351.21 57.66 355.90 60.86 C 359.65 63.61 363.20 66.62 366.72 69.67 C 370.55 72.60 373.69 76.27 376.73 79.99 C 379.91 83.31 382.84 86.84 385.77 90.38 C 388.56 94.06 391.02 97.96 393.58 101.81 C 396.34 106.47 398.88 111.25 401.53 115.98 C 403.44 128.77 420.44 119.06 429.15 121.87 C 426.12 114.30 423.45 106.52 418.80 99.74 C 417.06 95.10 414.57 90.82 411.65 86.84 C 409.56 83.53 407.61 80.00 404.81 77.25 C 401.99 72.73 398.51 68.69 394.61 65.08 C 393.07 62.15 390.67 59.75 387.98 57.86 C 383.98 52.67 378.53 48.88 373.33 45.01 C 369.70 41.92 365.89 39.10 361.86 36.59 C 355.90 31.18 348.20 28.56 341.19 24.89 C 335.04 20.89 327.84 19.34 321.06 16.85 C 311.66 12.67 301.20 11.42 291.16 9.61 C 266.79 6.18 240.99 8.08 217.91 15.91 Z" />
</g>
<g id="#d6b44bff">
<path fill="#d6b44b" opacity="1.00" d=" M 217.91 15.91 C 240.99 8.08 266.79 6.18 291.16 9.61 C 280.47 13.57 274.20 24.43 265.91 31.81 C 190.98 32.02 124.14 96.23 121.14 171.15 C 114.34 173.27 104.98 173.38 97.08 175.07 C 96.76 148.69 104.14 121.83 117.01 99.02 C 150.51 71.30 185.93 45.16 217.91 15.91 Z" />
</g>
<g id="#d6b447ff">
<path fill="#d6b447" opacity="1.00" d=" M 265.91 31.81 C 274.20 24.43 280.47 13.57 291.16 9.61 C 301.20 11.42 311.66 12.67 321.06 16.85 C 313.69 22.04 305.35 27.51 301.64 36.01 C 289.91 33.39 277.91 32.16 265.91 31.81 Z" />
</g>
<g id="#d7b24cff">
<path fill="#d7b24c" opacity="1.00" d=" M 117.01 99.02 C 137.32 59.29 174.79 27.80 217.91 15.91 C 185.93 45.16 150.51 71.30 117.01 99.02 Z" />
</g>
<g id="#d4b243ff">
<path fill="#d4b243" opacity="1.00" d=" M 301.64 36.01 C 305.35 27.51 313.69 22.04 321.06 16.85 C 327.84 19.34 335.04 20.89 341.19 24.89 C 334.45 30.00 328.45 35.99 322.65 42.13 C 315.57 40.35 308.84 37.36 301.64 36.01 Z" />
</g>
<g id="#d0ac40ff">
<path fill="#d0ac40" opacity="1.00" d=" M 341.19 24.89 C 348.20 28.56 355.90 31.18 361.86 36.59 C 354.63 40.65 348.35 46.10 341.88 51.22 C 335.48 48.17 329.02 45.24 322.65 42.13 C 328.45 35.99 334.45 30.00 341.19 24.89 Z" />
</g>
<g id="#cba63eff">
<path fill="#cba63e" opacity="1.00" d=" M 341.88 51.22 C 348.35 46.10 354.63 40.65 361.86 36.59 C 365.89 39.10 369.70 41.92 373.33 45.01 C 367.18 49.91 361.13 54.97 355.90 60.86 C 351.21 57.66 346.52 54.48 341.88 51.22 Z" />
</g>
<g id="#c6a03cff">
<path fill="#c6a03c" opacity="1.00" d=" M 373.33 45.01 C 378.53 48.88 383.98 52.67 387.98 57.86 C 379.09 52.30 372.57 64.78 366.72 69.67 C 363.20 66.62 359.65 63.61 355.90 60.86 C 361.13 54.97 367.18 49.91 373.33 45.01 Z" />
</g>
<g id="#f8f7f5ff">
<path fill="#f8f7f5" opacity="1.00" d=" M 305.00 49.00 C 316.33 51.41 331.27 52.61 333.40 67.59 C 340.48 81.66 368.30 68.21 365.00 87.00 C 351.45 86.16 336.80 99.98 330.00 111.00 C 337.46 113.87 351.50 110.16 359.00 113.00 C 382.76 115.88 408.95 138.32 433.00 135.00 C 437.70 129.50 446.89 130.07 444.28 139.33 C 449.41 128.31 434.58 113.41 446.00 102.00 C 449.28 94.73 456.29 102.39 453.00 111.00 C 455.86 121.63 464.10 135.66 459.16 151.26 C 448.80 154.80 465.12 162.04 460.00 173.00 C 456.73 187.63 473.48 193.41 468.00 205.00 C 461.20 214.60 448.70 216.30 440.00 207.00 C 438.41 220.05 433.59 237.34 426.10 253.13 C 416.71 253.84 406.44 243.70 399.69 240.01 C 402.51 227.13 409.51 215.13 409.88 201.73 C 415.90 199.20 424.89 204.05 428.89 203.24 C 418.53 200.07 410.50 192.29 401.77 186.20 C 385.26 184.18 380.49 207.96 365.14 209.27 C 374.88 220.39 390.61 228.69 399.69 240.01 C 409.55 256.51 425.15 270.74 435.00 286.00 C 437.93 295.26 428.83 292.50 423.00 293.00 C 414.34 292.06 400.76 297.00 402.13 285.47 C 404.30 271.83 395.84 265.40 388.00 258.00 C 371.99 249.38 358.22 236.59 341.00 235.00 C 341.45 250.52 350.78 268.70 357.61 283.40 C 360.63 302.28 376.00 263.46 383.00 274.00 C 389.91 281.58 400.98 283.24 400.58 291.59 C 385.22 312.65 360.05 330.46 332.30 341.30 C 279.71 363.27 216.59 355.55 170.00 324.00 C 161.29 314.95 141.02 307.45 143.97 295.98 C 156.72 293.84 173.42 283.45 182.00 294.00 C 204.50 311.50 235.38 321.49 261.00 323.00 C 297.31 323.95 321.73 315.70 352.84 295.83 C 353.45 289.91 329.33 299.18 330.00 289.00 C 335.04 278.16 331.95 260.31 322.00 252.00 C 312.75 246.96 314.23 231.87 301.83 241.84 C 294.18 257.90 310.50 268.13 301.00 281.00 C 288.25 291.38 263.01 283.63 249.00 281.00 C 232.68 278.98 218.44 274.90 203.00 272.00 C 201.25 280.50 185.22 278.62 178.00 284.00 C 154.63 288.28 133.05 304.68 113.00 289.00 C 110.10 280.99 116.91 280.40 121.00 276.00 C 115.29 276.10 117.01 269.04 118.92 264.88 C 153.41 241.03 192.69 216.37 225.00 194.00 C 239.44 196.39 256.29 202.62 272.90 206.10 C 280.45 212.25 286.84 199.37 293.14 194.19 C 308.31 179.04 326.34 161.77 340.00 147.00 C 348.16 149.16 344.74 139.74 347.00 136.00 C 342.50 137.83 334.24 135.91 336.00 144.00 C 318.31 161.78 297.68 180.84 280.00 200.00 C 264.01 202.60 246.11 191.20 228.36 189.10 C 195.41 210.20 163.86 232.61 131.00 254.00 C 127.93 256.96 122.41 260.44 117.00 258.00 C 108.02 245.42 106.52 212.41 126.00 208.00 C 128.11 205.11 134.73 206.73 135.00 202.00 C 112.20 207.22 77.83 196.74 57.90 214.89 C 55.30 226.93 46.08 235.58 37.00 240.00 C 26.92 245.72 32.38 227.33 37.00 226.00 C 36.69 217.86 34.20 210.26 41.00 208.00 C 53.84 204.71 70.27 190.05 87.00 190.00 C 107.56 187.69 136.61 190.84 151.00 173.00 C 156.97 158.34 163.38 134.78 181.32 122.33 C 188.00 118.46 185.32 133.40 187.66 124.65 C 203.27 79.80 255.62 78.54 291.00 91.00 C 299.34 80.93 303.73 63.37 305.00 49.00 M 308.38 51.78 C 306.31 62.35 304.64 73.24 300.04 83.07 C 303.91 85.47 307.76 87.93 311.71 90.20 C 312.41 84.67 313.35 79.17 314.58 73.73 C 318.47 79.75 308.16 90.65 316.68 93.03 C 321.25 98.07 325.42 89.87 328.84 86.91 C 335.80 87.81 317.73 94.71 323.65 97.21 C 338.72 111.40 344.07 77.46 362.18 84.87 C 360.34 74.75 344.25 82.51 338.03 76.06 C 329.22 72.83 331.43 61.51 323.19 57.85 C 317.34 58.58 313.16 54.25 308.38 51.78 M 240.91 88.88 C 215.87 89.18 193.26 108.53 189.02 133.14 C 187.29 138.62 188.23 144.46 188.13 150.10 C 188.15 152.80 188.17 155.51 188.21 158.23 C 188.23 159.99 188.25 163.51 188.27 165.28 C 187.93 167.95 187.62 170.66 187.35 173.35 C 186.57 176.59 185.80 179.84 185.10 183.09 C 183.58 186.54 181.79 189.86 180.29 193.31 C 176.20 199.01 172.25 204.81 169.08 211.08 C 167.83 211.82 166.48 215.02 165.20 212.85 C 168.42 209.67 169.66 202.84 172.25 198.27 C 174.50 193.13 176.93 188.04 178.50 182.63 C 178.91 181.34 178.97 170.95 179.03 166.73 C 178.90 163.44 178.74 160.14 178.59 156.86 C 180.45 151.52 180.63 145.82 180.99 140.22 C 181.97 135.51 181.82 130.66 181.88 125.87 C 175.26 131.74 169.23 138.65 166.00 147.00 C 161.60 154.22 158.53 162.21 156.28 170.34 C 152.64 182.09 139.32 185.68 129.19 190.15 C 121.21 191.27 113.15 191.68 105.12 192.10 C 80.85 189.81 60.23 203.03 39.91 213.17 C 43.84 222.30 37.63 228.99 34.84 236.80 C 44.32 232.62 51.35 225.22 54.09 215.20 C 63.71 201.75 82.40 199.35 97.86 199.91 C 105.22 200.00 112.58 200.00 119.95 199.91 C 123.67 199.54 128.84 201.08 131.69 199.54 C 135.40 198.54 139.09 197.46 142.88 196.85 C 140.88 200.23 139.12 203.75 137.21 207.19 C 128.88 210.23 118.09 213.04 115.96 223.01 C 113.47 227.28 114.12 232.51 114.83 237.16 C 114.75 240.14 115.21 243.08 115.37 246.07 C 115.96 250.46 117.89 257.78 124.21 254.35 C 144.23 240.62 165.21 227.44 184.73 213.37 C 199.41 203.93 213.71 193.92 228.47 184.59 C 231.90 186.02 235.47 187.09 239.07 188.00 C 244.22 188.90 249.65 191.82 254.39 191.74 C 261.57 194.67 269.21 196.30 276.76 197.99 C 284.93 189.15 293.82 181.02 302.07 172.26 C 306.38 168.35 310.41 164.14 314.22 159.74 C 318.87 156.86 322.71 151.38 327.46 148.02 C 331.13 144.64 335.38 141.14 329.74 137.65 C 335.68 136.41 347.81 129.09 351.04 133.02 C 350.55 135.57 350.19 138.13 350.03 140.72 C 348.93 144.80 348.05 148.94 347.66 153.16 C 341.53 146.27 337.41 155.56 333.28 160.23 C 314.87 176.55 298.06 194.64 280.73 212.10 C 273.75 210.31 266.88 208.06 259.81 206.64 C 251.71 203.93 240.25 201.71 231.09 198.66 C 228.80 198.72 226.25 197.71 224.28 199.17 C 191.17 221.09 157.91 242.80 125.02 265.05 C 121.84 266.59 120.49 269.18 120.97 272.81 C 157.31 250.56 192.06 225.75 228.56 203.78 C 238.88 207.10 249.23 210.44 259.78 212.96 C 266.69 215.49 273.85 217.20 280.91 219.25 C 300.95 199.69 320.92 180.00 340.26 159.75 C 343.45 156.08 346.61 163.06 350.69 165.24 C 352.73 157.60 353.25 149.66 354.30 141.85 C 356.20 142.37 354.67 138.41 355.15 137.13 C 355.61 134.77 356.16 132.44 356.81 130.13 C 357.01 127.36 357.16 124.59 357.41 121.83 C 360.63 123.38 359.00 114.43 354.90 115.89 C 343.04 113.34 327.94 118.85 319.31 106.76 C 313.42 103.59 308.24 98.93 301.88 96.79 C 283.79 89.78 261.29 86.52 240.91 88.88 M 304.31 89.23 C 293.87 98.62 317.17 92.09 304.31 89.23 M 311.11 93.06 C 299.70 100.34 323.02 98.75 311.11 93.06 M 317.95 97.02 C 306.46 105.40 331.82 101.53 317.95 97.02 M 326.06 100.96 C 321.35 103.65 321.12 106.24 326.29 108.54 C 330.41 105.68 332.36 101.92 326.06 100.96 M 449.12 132.13 C 449.52 140.72 444.25 147.77 437.18 152.00 C 433.58 153.23 430.28 155.20 426.91 156.93 C 423.50 158.80 419.75 159.96 416.04 161.03 C 409.91 163.35 403.14 160.49 403.90 153.20 C 407.81 148.29 414.20 148.03 419.90 147.03 C 427.57 145.93 438.55 143.75 441.09 135.08 C 435.01 137.34 428.76 139.70 422.13 139.08 C 406.41 137.02 392.60 128.15 377.85 122.96 C 373.20 120.48 361.94 112.36 363.80 122.27 C 363.56 124.17 363.32 126.07 363.10 127.97 C 362.40 130.99 361.61 133.98 360.91 137.00 C 360.65 139.08 360.40 141.17 360.23 143.26 C 359.45 144.95 359.45 146.86 359.28 148.68 C 358.19 153.09 357.25 157.57 357.12 162.12 C 355.42 166.61 355.30 171.51 354.53 176.21 C 350.45 173.16 346.84 169.56 343.22 166.00 C 339.84 169.61 336.42 173.17 332.99 176.72 C 318.32 190.41 304.86 205.67 291.01 219.90 C 288.60 221.99 286.22 224.10 283.84 226.22 C 267.18 222.50 250.82 217.51 234.16 213.78 C 231.89 213.15 229.28 211.29 227.13 213.17 C 190.09 237.08 152.47 260.11 115.63 284.32 C 118.37 293.06 131.03 292.64 138.27 291.51 C 158.64 287.02 177.98 278.87 198.17 273.68 C 187.69 269.87 175.74 273.29 165.58 268.21 C 209.10 261.95 250.21 285.57 293.28 281.49 C 310.38 275.10 290.36 256.93 298.03 244.95 C 285.33 250.37 269.39 254.28 256.48 249.14 C 274.06 249.33 290.95 244.44 306.29 236.03 C 314.62 231.52 316.91 242.18 321.38 246.62 C 334.78 256.14 338.01 274.78 333.83 289.91 C 341.27 290.01 348.72 290.01 356.17 289.81 C 348.99 270.61 336.30 252.58 338.13 231.02 C 352.42 228.96 362.31 241.14 375.04 244.84 C 377.47 248.30 382.65 249.92 386.47 252.11 C 390.01 255.74 395.34 260.22 398.87 263.61 C 405.63 270.24 406.26 279.88 406.05 288.84 C 411.14 286.50 438.81 294.54 428.70 284.29 C 421.91 271.78 410.29 262.48 402.43 250.56 C 391.86 232.07 371.91 222.70 357.33 207.94 C 352.86 203.31 347.81 198.88 345.10 192.93 C 354.05 195.02 359.55 206.09 369.27 204.67 C 377.89 198.52 383.28 188.33 393.12 183.78 C 408.08 179.11 416.03 196.52 429.35 199.68 C 441.08 200.72 451.13 215.97 462.17 206.08 C 463.85 204.91 464.88 203.21 465.15 201.17 C 465.04 198.84 464.41 196.60 463.16 194.63 C 461.49 192.37 459.92 190.01 457.86 188.09 C 457.64 186.11 457.45 184.12 457.02 182.18 C 456.73 178.75 456.25 175.35 455.96 171.93 C 455.63 168.32 456.46 163.47 454.27 160.87 C 452.45 158.24 448.85 153.32 452.77 151.00 C 460.41 146.33 456.52 135.87 455.57 128.57 C 452.56 120.37 447.74 111.89 449.95 102.89 C 440.89 110.46 446.83 122.60 449.12 132.13 M 442.50 141.41 C 433.69 149.40 421.98 150.35 412.00 152.00 C 406.86 151.35 406.14 161.11 414.00 158.00 C 422.51 153.70 439.36 149.53 442.50 141.41 M 183.00 149.00 C 183.77 160.11 181.47 168.14 182.00 179.00 C 185.19 172.25 184.56 157.00 183.00 149.00 M 413.19 204.02 C 411.90 215.84 407.59 226.94 403.60 238.03 C 409.73 242.90 416.58 246.87 423.72 250.08 C 429.19 236.96 434.22 223.46 435.96 209.28 C 428.27 207.98 420.77 205.81 413.19 204.02 M 321.95 316.92 C 308.33 321.21 294.47 324.92 280.21 326.25 C 268.85 325.71 257.41 326.69 246.13 325.10 C 242.48 323.60 238.51 323.59 234.68 322.93 C 229.26 321.09 223.63 319.50 218.09 317.89 C 214.20 316.00 210.11 314.54 206.24 312.60 C 202.09 310.75 197.92 308.93 193.94 306.73 C 189.03 303.22 183.92 300.00 178.87 296.71 C 174.61 289.96 168.06 292.71 162.12 295.02 C 154.43 297.27 138.78 298.01 152.83 305.86 C 155.21 307.84 157.55 309.87 159.90 311.90 C 164.58 315.95 169.64 319.54 174.88 322.85 C 178.25 324.78 181.55 326.83 184.86 328.88 C 189.48 331.34 194.21 333.60 198.92 335.88 C 203.79 337.44 208.60 340.42 213.63 341.02 C 217.76 342.96 222.09 344.48 226.62 345.14 C 233.59 346.88 240.63 348.79 247.86 348.97 C 259.86 350.73 272.15 350.46 284.18 349.23 C 328.08 345.89 369.54 323.47 398.06 290.18 C 391.95 285.45 385.84 280.72 379.87 275.81 C 363.72 293.51 343.92 307.49 321.95 316.92 Z" />
</g>
<g id="#d7ba63ff">
<path fill="#d7ba63" opacity="1.00" d=" M 308.38 51.78 C 313.16 54.25 317.34 58.58 323.19 57.85 C 322.54 69.53 320.60 81.77 316.68 93.03 C 308.16 90.65 318.47 79.75 314.58 73.73 C 313.35 79.17 312.41 84.67 311.71 90.20 C 307.76 87.93 303.91 85.47 300.04 83.07 C 304.64 73.24 306.31 62.35 308.38 51.78 Z" />
</g>
<g id="#c1993aff">
<path fill="#c1993a" opacity="1.00" d=" M 366.72 69.67 C 372.57 64.78 379.09 52.30 387.98 57.86 C 390.67 59.75 393.07 62.15 394.61 65.08 C 388.15 69.40 381.96 74.21 376.73 79.99 C 373.69 76.27 370.55 72.60 366.72 69.67 Z" />
</g>
<g id="#d5ba75ff">
<path fill="#d5ba75" opacity="1.00" d=" M 323.19 57.85 C 331.43 61.51 329.22 72.83 338.03 76.06 C 340.62 82.37 329.50 80.66 328.84 86.91 C 325.42 89.87 321.25 98.07 316.68 93.03 C 320.60 81.77 322.54 69.53 323.19 57.85 Z" />
</g>
<g id="#bc9339ff">
<path fill="#bc9339" opacity="1.00" d=" M 376.73 79.99 C 381.96 74.21 388.15 69.40 394.61 65.08 C 398.51 68.69 401.99 72.73 404.81 77.25 C 398.12 72.69 388.39 83.70 385.77 90.38 C 382.84 86.84 379.91 83.31 376.73 79.99 Z" />
</g>
<g id="#b68c37ff">
<path fill="#b68c37" opacity="1.00" d=" M 385.77 90.38 C 388.39 83.70 398.12 72.69 404.81 77.25 C 407.61 80.00 409.56 83.53 411.65 86.84 C 404.32 89.32 397.26 94.93 393.58 101.81 C 391.02 97.96 388.56 94.06 385.77 90.38 Z" />
</g>
<g id="#d1b67fff">
<path fill="#d1b67f" opacity="1.00" d=" M 338.03 76.06 C 344.25 82.51 360.34 74.75 362.18 84.87 C 344.07 77.46 338.72 111.40 323.65 97.21 C 317.73 94.71 335.80 87.81 328.84 86.91 C 329.50 80.66 340.62 82.37 338.03 76.06 Z" />
</g>
<g id="#b08434ff">
<path fill="#b08434" opacity="1.00" d=" M 393.58 101.81 C 397.26 94.93 404.32 89.32 411.65 86.84 C 414.57 90.82 417.06 95.10 418.80 99.74 C 411.39 103.07 405.03 108.57 401.53 115.98 C 398.88 111.25 396.34 106.47 393.58 101.81 Z" />
</g>
<g id="#d8b95bff">
<path fill="#d8b95b" opacity="1.00" d=" M 240.91 88.88 C 261.29 86.52 283.79 89.78 301.88 96.79 C 297.21 97.48 291.91 96.50 287.66 98.89 C 276.05 101.63 264.26 103.87 253.02 107.92 C 246.61 102.86 251.96 87.87 240.91 88.88 Z" />
</g>
<g id="#d7b34cff">
<path fill="#d7b34c" opacity="1.00" d=" M 189.02 133.14 C 193.26 108.53 215.87 89.18 240.91 88.88 C 251.96 87.87 246.61 102.86 253.02 107.92 C 251.11 109.24 243.80 110.66 249.00 112.20 C 251.78 116.17 250.73 118.11 245.82 117.86 C 242.85 112.09 238.77 107.02 234.95 101.82 C 220.34 113.24 202.52 120.42 189.02 133.14 Z" />
</g>
<g id="#d3b56cff">
<path fill="#d3b56c" opacity="1.00" d=" M 304.31 89.23 C 317.17 92.09 293.87 98.62 304.31 89.23 Z" />
</g>
<g id="#d2b678ff">
<path fill="#d2b678" opacity="1.00" d=" M 311.11 93.06 C 323.02 98.75 299.70 100.34 311.11 93.06 Z" />
</g>
<g id="#d1b36aff">
<path fill="#d1b36a" opacity="1.00" d=" M 287.66 98.89 C 291.91 96.50 297.21 97.48 301.88 96.79 C 308.24 98.93 313.42 103.59 319.31 106.76 C 317.02 107.56 314.87 108.70 312.90 110.09 C 312.84 109.37 312.74 107.93 312.68 107.21 C 307.85 103.27 301.14 105.84 301.30 112.36 C 300.99 112.04 300.37 111.40 300.06 111.09 C 303.75 106.12 295.06 108.74 292.31 106.58 C 290.84 104.85 281.81 113.95 277.89 117.06 L 277.76 116.25 C 276.19 113.18 279.99 111.52 281.31 109.14 C 274.86 108.24 268.35 107.72 261.85 107.74 C 270.18 103.98 279.67 103.38 287.66 98.89 Z" />
</g>
<g id="#d0b57fff">
<path fill="#d0b57f" opacity="1.00" d=" M 317.95 97.02 C 331.82 101.53 306.46 105.40 317.95 97.02 Z" />
</g>
<g id="#f6efdbff">
<path fill="#f6efdb" opacity="1.00" d=" M 253.02 107.92 C 264.26 103.87 276.05 101.63 287.66 98.89 C 279.67 103.38 270.18 103.98 261.85 107.74 C 257.56 109.21 253.29 110.73 249.00 112.20 C 243.80 110.66 251.11 109.24 253.02 107.92 Z" />
</g>
<g id="#a97b32ff">
<path fill="#a97b32" opacity="1.00" d=" M 401.53 115.98 C 405.03 108.57 411.39 103.07 418.80 99.74 C 423.45 106.52 426.12 114.30 429.15 121.87 C 420.44 119.06 403.44 128.77 401.53 115.98 Z" />
</g>
<g id="#d1b581ff">
<path fill="#d1b581" opacity="1.00" d=" M 326.06 100.96 C 332.36 101.92 330.41 105.68 326.29 108.54 C 321.12 106.24 321.35 103.65 326.06 100.96 Z" />
</g>
<g id="#d5b243ff">
<path fill="#d5b243" opacity="1.00" d=" M 189.02 133.14 C 202.52 120.42 220.34 113.24 234.95 101.82 C 238.77 107.02 242.85 112.09 245.82 117.86 C 223.37 119.64 208.21 141.21 188.13 150.10 C 188.23 144.46 187.29 138.62 189.02 133.14 Z" />
</g>
<g id="#4c4c4cff">
<path fill="#4c4c4c" opacity="1.00" d=" M 449.12 132.13 C 446.83 122.60 440.89 110.46 449.95 102.89 C 447.74 111.89 452.56 120.37 455.57 128.57 C 454.66 132.32 452.79 134.02 449.12 132.13 Z" />
<path fill="#4c4c4c" opacity="1.00" d=" M 416.04 161.03 C 419.75 159.96 423.50 158.80 426.91 156.93 C 433.05 160.14 441.49 160.30 445.65 166.39 C 448.09 168.80 451.36 177.42 453.58 170.70 C 454.36 171.11 455.16 171.52 455.96 171.93 C 456.25 175.35 456.73 178.75 457.02 182.18 C 447.16 170.05 430.70 165.07 416.04 161.03 Z" />
</g>
<g id="#f3ebd8ff">
<path fill="#f3ebd8" opacity="1.00" d=" M 277.89 117.06 C 281.81 113.95 290.84 104.85 292.31 106.58 C 289.10 108.79 276.08 126.74 277.89 117.06 Z" />
</g>
<g id="#caab6eff">
<path fill="#caab6e" opacity="1.00" d=" M 301.30 112.36 C 301.14 105.84 307.85 103.27 312.68 107.21 C 311.87 111.89 311.02 116.56 310.36 121.25 C 310.96 115.01 303.57 114.99 299.75 117.82 C 300.24 115.99 300.76 114.17 301.30 112.36 Z" />
</g>
<g id="#cbab67ff">
<path fill="#cbab67" opacity="1.00" d=" M 277.89 117.06 C 276.08 126.74 289.10 108.79 292.31 106.58 C 295.06 108.74 303.75 106.12 300.06 111.09 C 298.70 114.39 297.27 117.68 296.13 121.07 C 288.73 118.24 277.66 121.47 273.04 128.09 C 272.04 127.02 271.05 125.96 270.05 124.90 C 274.09 124.12 269.34 116.77 277.76 116.25 L 277.89 117.06 Z" />
</g>
<g id="#c9ab77ff">
<path fill="#c9ab77" opacity="1.00" d=" M 312.90 110.09 C 314.87 108.70 317.02 107.56 319.31 106.76 C 327.94 118.85 343.04 113.34 354.90 115.89 C 341.04 117.50 326.50 114.58 312.93 117.84 C 312.97 115.26 312.96 112.67 312.90 110.09 Z" />
</g>
<g id="#cfaf5aff">
<path fill="#cfaf5a" opacity="1.00" d=" M 249.00 112.20 C 253.29 110.73 257.56 109.21 261.85 107.74 C 268.35 107.72 274.86 108.24 281.31 109.14 C 279.99 111.52 276.19 113.18 277.76 116.25 C 269.34 116.77 274.09 124.12 270.05 124.90 C 265.70 132.38 257.89 125.35 250.56 127.84 C 249.53 124.28 247.90 120.92 245.82 117.86 C 250.73 118.11 251.78 116.17 249.00 112.20 Z" />
</g>
<g id="#faf6efff">
<path fill="#faf6ef" opacity="1.00" d=" M 312.68 107.21 C 312.74 107.93 312.84 109.37 312.90 110.09 C 312.96 112.67 312.97 115.26 312.93 117.84 C 312.86 124.96 313.27 132.08 313.87 139.17 C 314.66 144.14 314.32 146.65 311.22 142.68 C 311.10 141.53 310.98 140.39 310.85 139.24 C 310.55 136.12 310.22 132.99 309.98 129.86 C 309.88 128.56 309.82 127.25 309.80 125.95 C 309.95 124.38 310.17 122.82 310.36 121.25 C 311.02 116.56 311.87 111.89 312.68 107.21 Z" />
</g>
<g id="#f5eedeff">
<path fill="#f5eede" opacity="1.00" d=" M 300.06 111.09 C 300.37 111.40 300.99 112.04 301.30 112.36 C 300.76 114.17 300.24 115.99 299.75 117.82 C 298.67 121.87 297.63 125.95 297.12 130.12 C 295.82 130.65 293.28 133.21 294.10 130.19 C 294.57 127.11 295.27 124.06 296.13 121.07 C 297.27 117.68 298.70 114.39 300.06 111.09 Z" />
</g>
<g id="#c3a268ff">
<path fill="#c3a268" opacity="1.00" d=" M 299.75 117.82 C 303.57 114.99 310.96 115.01 310.36 121.25 C 310.17 122.82 309.95 124.38 309.80 125.95 C 305.23 126.04 300.95 127.73 297.12 130.12 C 297.63 125.95 298.67 121.87 299.75 117.82 Z" />
</g>
<g id="#bf9e6eff">
<path fill="#bf9e6e" opacity="1.00" d=" M 312.93 117.84 C 326.50 114.58 341.04 117.50 354.90 115.89 C 359.00 114.43 360.63 123.38 357.41 121.83 C 347.55 117.17 331.95 127.48 320.11 124.27 C 315.68 122.51 313.89 126.60 313.73 130.40 C 313.76 132.99 313.80 135.58 313.86 138.18 L 313.87 139.17 C 313.27 132.08 312.86 124.96 312.93 117.84 Z" />
</g>
<g id="#545454ff">
<path fill="#545454" opacity="1.00" d=" M 363.80 122.27 C 361.94 112.36 373.20 120.48 377.85 122.96 C 373.15 122.76 368.46 122.84 363.80 122.27 Z" />
</g>
<g id="#cfab40ff">
<path fill="#cfab40" opacity="1.00" d=" M 188.13 150.10 C 208.21 141.21 223.37 119.64 245.82 117.86 C 247.90 120.92 249.53 124.28 250.56 127.84 C 249.70 128.40 248.85 128.98 248.02 129.57 C 245.32 127.75 242.62 123.00 238.82 124.91 C 221.37 135.10 205.46 147.70 188.21 158.23 C 188.17 155.51 188.15 152.80 188.13 150.10 Z" />
</g>
<g id="#c6a564ff">
<path fill="#c6a564" opacity="1.00" d=" M 273.04 128.09 C 277.66 121.47 288.73 118.24 296.13 121.07 C 295.27 124.06 294.57 127.11 294.10 130.19 C 288.02 130.02 278.08 129.35 274.79 135.03 C 271.37 133.33 270.13 131.11 273.04 128.09 Z" />
</g>
<g id="#b89465ff">
<path fill="#b89465" opacity="1.00" d=" M 320.11 124.27 C 331.95 127.48 347.55 117.17 357.41 121.83 C 357.16 124.59 357.01 127.36 356.81 130.13 C 343.03 124.39 328.08 131.63 313.73 130.40 C 313.89 126.60 315.68 122.51 320.11 124.27 Z" />
</g>
<g id="#4a4a4aff">
<path fill="#4a4a4a" opacity="1.00" d=" M 363.80 122.27 C 368.46 122.84 373.15 122.76 377.85 122.96 C 392.60 128.15 406.41 137.02 422.13 139.08 C 422.62 142.31 424.09 146.27 419.90 147.03 C 414.20 148.03 407.81 148.29 403.90 153.20 C 398.42 133.79 377.53 136.83 363.10 127.97 C 363.32 126.07 363.56 124.17 363.80 122.27 Z" />
</g>
<g id="#caa53dff">
<path fill="#caa53d" opacity="1.00" d=" M 238.82 124.91 C 242.62 123.00 245.32 127.75 248.02 129.57 C 247.53 129.93 246.55 130.65 246.07 131.00 C 224.85 135.46 208.17 155.36 188.27 165.28 C 188.25 163.51 188.23 159.99 188.21 158.23 C 205.46 147.70 221.37 135.10 238.82 124.91 Z" />
</g>
<g id="#f9f6f1ff">
<path fill="#f9f6f1" opacity="1.00" d=" M 250.56 127.84 C 257.89 125.35 265.70 132.38 270.05 124.90 C 271.05 125.96 272.04 127.02 273.04 128.09 C 270.13 131.11 271.37 133.33 274.79 135.03 C 276.10 136.02 277.42 137.00 278.70 138.05 C 280.08 139.74 281.08 141.69 281.92 143.69 C 280.98 144.48 280.04 145.27 279.10 146.06 C 274.26 152.98 271.02 143.10 266.19 140.72 C 262.46 145.71 258.72 150.65 264.63 155.16 C 266.78 158.18 268.31 161.60 269.31 165.16 C 268.96 174.10 260.76 179.12 252.45 177.94 C 247.17 174.36 244.04 176.15 243.05 182.27 C 241.34 181.55 239.64 180.83 238.00 179.98 C 238.55 176.54 243.35 172.29 238.00 170.92 C 236.22 169.74 234.52 168.45 232.97 166.98 C 231.48 165.32 230.10 163.58 228.70 161.85 C 231.13 159.23 233.29 150.45 236.69 156.33 C 240.83 160.50 246.89 169.71 249.06 159.09 C 253.84 154.29 246.65 150.50 245.08 145.82 C 244.54 144.59 244.06 143.33 243.59 142.07 C 243.91 138.29 244.53 134.50 246.07 131.00 C 246.55 130.65 247.53 129.93 248.02 129.57 C 248.85 128.98 249.70 128.40 250.56 127.84 Z" />
</g>
<g id="#d8b550ff">
<path fill="#d8b550" opacity="1.00" d=" M 166.00 147.00 C 169.23 138.65 175.26 131.74 181.88 125.87 C 181.82 130.66 181.97 135.51 180.99 140.22 C 175.50 137.26 170.89 144.67 166.00 147.00 Z" />
</g>
<g id="#bf9c61ff">
<path fill="#bf9c61" opacity="1.00" d=" M 297.12 130.12 C 300.95 127.73 305.23 126.04 309.80 125.95 C 309.82 127.25 309.88 128.56 309.98 129.86 C 300.40 135.87 288.50 133.20 278.70 138.05 C 277.42 137.00 276.10 136.02 274.79 135.03 C 278.08 129.35 288.02 130.02 294.10 130.19 C 293.28 133.21 295.82 130.65 297.12 130.12 Z" />
</g>
<g id="#fffffeff">
<path fill="#fffffe" opacity="1.00" d=" M 423.00 127.00 C 446.00 121.31 423.46 142.34 423.00 127.00 Z" />
</g>
<g id="#b38c5eff">
<path fill="#b38c5e" opacity="1.00" d=" M 313.73 130.40 C 328.08 131.63 343.03 124.39 356.81 130.13 C 356.16 132.44 355.61 134.77 355.15 137.13 C 355.77 133.74 354.46 132.30 351.04 133.02 C 347.81 129.09 335.68 136.41 329.74 137.65 C 324.44 137.27 319.08 137.09 313.86 138.18 C 313.80 135.58 313.76 132.99 313.73 130.40 Z" />
</g>
<g id="#3c3c3cff">
<path fill="#3c3c3c" opacity="1.00" d=" M 363.10 127.97 C 377.53 136.83 398.42 133.79 403.90 153.20 C 403.14 160.49 409.91 163.35 416.04 161.03 C 430.70 165.07 447.16 170.05 457.02 182.18 C 457.45 184.12 457.64 186.11 457.86 188.09 C 443.20 172.98 421.62 169.48 403.24 160.95 C 395.85 157.84 394.54 146.02 385.24 146.89 C 376.47 146.81 368.39 131.94 360.91 137.00 C 361.61 133.98 362.40 130.99 363.10 127.97 Z" />
</g>
<g id="#5f5f5fff">
<path fill="#5f5f5f" opacity="1.00" d=" M 455.57 128.57 C 456.52 135.87 460.41 146.33 452.77 151.00 C 448.85 153.32 452.45 158.24 454.27 160.87 C 448.07 157.07 446.89 149.83 437.18 152.00 C 444.25 147.77 449.52 140.72 449.12 132.13 C 452.79 134.02 454.66 132.32 455.57 128.57 Z" />
</g>
<g id="#c59e3cff">
<path fill="#c59e3c" opacity="1.00" d=" M 188.27 165.28 C 208.17 155.36 224.85 135.46 246.07 131.00 C 244.53 134.50 243.91 138.29 243.59 142.07 C 243.07 140.85 242.51 139.65 241.95 138.45 C 223.27 149.34 205.80 162.14 187.35 173.35 C 187.62 170.66 187.93 167.95 188.27 165.28 Z" />
</g>
<g id="#bb965cff">
<path fill="#bb965c" opacity="1.00" d=" M 278.70 138.05 C 288.50 133.20 300.40 135.87 309.98 129.86 C 310.22 132.99 310.55 136.12 310.85 139.24 C 309.79 132.77 304.54 137.74 300.70 138.82 C 294.77 141.77 286.96 138.79 281.92 143.69 C 281.08 141.69 280.08 139.74 278.70 138.05 Z" />
</g>
<g id="#a87d4eff">
<path fill="#a87d4e" opacity="1.00" d=" M 351.04 133.02 C 354.46 132.30 355.77 133.74 355.15 137.13 C 354.67 138.41 356.20 142.37 354.30 141.85 C 352.88 141.46 351.45 141.09 350.03 140.72 C 350.19 138.13 350.55 135.57 351.04 133.02 Z" />
</g>
<g id="#2e2e2eff">
<path fill="#2e2e2e" opacity="1.00" d=" M 360.91 137.00 C 368.39 131.94 376.47 146.81 385.24 146.89 C 394.54 146.02 395.85 157.84 403.24 160.95 C 421.62 169.48 443.20 172.98 457.86 188.09 C 459.92 190.01 461.49 192.37 463.16 194.63 C 447.55 184.88 432.32 173.14 413.43 169.53 C 401.32 169.32 394.30 155.95 381.92 157.73 C 375.29 154.44 367.42 136.83 360.23 143.26 C 360.40 141.17 360.65 139.08 360.91 137.00 Z" />
</g>
<g id="#606060ff">
<path fill="#606060" opacity="1.00" d=" M 422.13 139.08 C 428.76 139.70 435.01 137.34 441.09 135.08 C 438.55 143.75 427.57 145.93 419.90 147.03 C 424.09 146.27 422.62 142.31 422.13 139.08 Z" />
</g>
<g id="#b38c54ff">
<path fill="#b38c54" opacity="1.00" d=" M 300.70 138.82 C 304.54 137.74 309.79 132.77 310.85 139.24 C 310.98 140.39 311.10 141.53 311.22 142.68 C 303.94 143.06 297.74 148.38 290.12 146.96 C 286.44 146.80 282.76 146.39 279.10 146.06 C 280.04 145.27 280.98 144.48 281.92 143.69 C 286.96 138.79 294.77 141.77 300.70 138.82 Z" />
</g>
<g id="#ab814fff">
<path fill="#ab814f" opacity="1.00" d=" M 313.86 138.18 C 319.08 137.09 324.44 137.27 329.74 137.65 C 335.38 141.14 331.13 144.64 327.46 148.02 C 315.88 143.03 304.93 156.86 292.08 152.93 C 291.48 150.92 290.81 148.94 290.12 146.96 C 297.74 148.38 303.94 143.06 311.22 142.68 C 314.32 146.65 314.66 144.14 313.87 139.17 L 313.86 138.18 Z" />
</g>
<g id="#d5b345ff">
<path fill="#d5b345" opacity="1.00" d=" M 166.00 147.00 C 170.89 144.67 175.50 137.26 180.99 140.22 C 180.63 145.82 180.45 151.52 178.59 156.86 C 170.98 161.06 163.65 165.73 156.28 170.34 C 158.53 162.21 161.60 154.22 166.00 147.00 Z" />
</g>
<g id="#bf9739ff">
<path fill="#bf9739" opacity="1.00" d=" M 187.35 173.35 C 205.80 162.14 223.27 149.34 241.95 138.45 C 242.51 139.65 243.07 140.85 243.59 142.07 C 244.06 143.33 244.54 144.59 245.08 145.82 C 243.31 147.17 241.57 148.55 239.77 149.84 C 219.27 155.63 203.66 172.84 185.10 183.09 C 185.80 179.84 186.57 176.59 187.35 173.35 Z" />
</g>
<g id="#b18744ff">
<path fill="#b18744" opacity="1.00" d=" M 266.19 140.72 C 271.02 143.10 274.26 152.98 279.10 146.06 C 282.76 146.39 286.44 146.80 290.12 146.96 C 290.81 148.94 291.48 150.92 292.08 152.93 C 290.10 153.02 288.11 153.10 286.13 153.08 C 278.89 153.30 269.18 147.03 264.63 155.16 C 258.72 150.65 262.46 145.71 266.19 140.72 Z" />
</g>
<g id="#93613cff">
<path fill="#93613c" opacity="1.00" d=" M 350.03 140.72 C 351.45 141.09 352.88 141.46 354.30 141.85 C 353.25 149.66 352.73 157.60 350.69 165.24 C 346.61 163.06 343.45 156.08 340.26 159.75 C 338.81 156.56 335.61 159.75 333.28 160.23 C 337.41 155.56 341.53 146.27 347.66 153.16 C 348.05 148.94 348.93 144.80 350.03 140.72 Z" />
</g>
<g id="#25233cff">
<path fill="#25233c" opacity="1.00" d=" M 360.23 143.26 C 367.42 136.83 375.29 154.44 381.92 157.73 C 394.30 155.95 401.32 169.32 413.43 169.53 C 432.32 173.14 447.55 184.88 463.16 194.63 C 464.41 196.60 465.04 198.84 465.15 201.17 C 456.97 198.26 451.24 191.60 444.60 186.40 C 428.32 175.43 407.99 174.10 390.74 165.36 C 376.52 170.58 369.16 154.88 359.28 148.68 C 359.45 146.86 359.45 144.95 360.23 143.26 Z" />
</g>
<g id="#b58b3bff">
<path fill="#b58b3b" opacity="1.00" d=" M 239.77 149.84 C 241.57 148.55 243.31 147.17 245.08 145.82 C 246.65 150.50 253.84 154.29 249.06 159.09 C 246.89 169.71 240.83 160.50 236.69 156.33 C 239.99 154.39 248.00 149.79 239.77 149.84 Z" />
</g>
<g id="#a27442ff">
<path fill="#a27442" opacity="1.00" d=" M 292.08 152.93 C 304.93 156.86 315.88 143.03 327.46 148.02 C 322.71 151.38 318.87 156.86 314.22 159.74 C 306.13 158.96 298.44 164.34 290.38 161.49 C 291.52 157.16 284.54 155.91 286.13 153.08 C 288.11 153.10 290.10 153.02 292.08 152.93 Z" />
</g>
<g id="#151515ff">
<path fill="#151515" opacity="1.00" d=" M 359.28 148.68 C 369.16 154.88 376.52 170.58 390.74 165.36 C 407.99 174.10 428.32 175.43 444.60 186.40 C 451.24 191.60 456.97 198.26 465.15 201.17 C 464.88 203.21 463.85 204.91 462.17 206.08 C 440.29 182.55 404.11 166.13 372.84 175.48 C 363.84 174.78 364.16 150.02 357.12 162.12 C 357.25 157.57 358.19 153.09 359.28 148.68 Z" />
</g>
<g id="#ba9138ff">
<path fill="#ba9138" opacity="1.00" d=" M 185.10 183.09 C 203.66 172.84 219.27 155.63 239.77 149.84 C 248.00 149.79 239.99 154.39 236.69 156.33 C 233.29 150.45 231.13 159.23 228.70 161.85 C 212.10 171.62 196.88 183.53 180.29 193.31 C 181.79 189.86 183.58 186.54 185.10 183.09 Z" />
</g>
<g id="#a57633ff">
<path fill="#a57633" opacity="1.00" d=" M 264.63 155.16 C 269.18 147.03 278.89 153.30 286.13 153.08 C 284.54 155.91 291.52 157.16 290.38 161.49 C 282.92 159.17 275.47 160.55 269.31 165.16 C 268.31 161.60 266.78 158.18 264.63 155.16 Z" />
</g>
<g id="#575757ff">
<path fill="#575757" opacity="1.00" d=" M 426.91 156.93 C 430.28 155.20 433.58 153.23 437.18 152.00 C 446.89 149.83 448.07 157.07 454.27 160.87 C 456.46 163.47 455.63 168.32 455.96 171.93 C 455.16 171.52 454.36 171.11 453.58 170.70 C 451.42 167.55 449.76 161.79 445.65 166.39 C 441.49 160.30 433.05 160.14 426.91 156.93 Z" />
</g>
<g id="#d0ac41ff">
<path fill="#d0ac41" opacity="1.00" d=" M 156.28 170.34 C 163.65 165.73 170.98 161.06 178.59 156.86 C 178.74 160.14 178.90 163.44 179.03 166.73 C 162.74 174.11 142.66 184.94 131.69 199.54 C 128.84 201.08 123.67 199.54 119.95 199.91 C 123.00 196.63 126.09 193.38 129.19 190.15 C 139.32 185.68 152.64 182.09 156.28 170.34 Z" />
</g>
<g id="#88512fff">
<path fill="#88512f" opacity="1.00" d=" M 333.28 160.23 C 335.61 159.75 338.81 156.56 340.26 159.75 C 320.92 180.00 300.95 199.69 280.91 219.25 C 273.85 217.20 266.69 215.49 259.78 212.96 C 259.77 210.85 259.77 208.74 259.81 206.64 C 266.88 208.06 273.75 210.31 280.73 212.10 C 298.06 194.64 314.87 176.55 333.28 160.23 Z" />
</g>
<g id="#080808ff">
<path fill="#080808" opacity="1.00" d=" M 357.12 162.12 C 364.16 150.02 363.84 174.78 372.84 175.48 C 404.11 166.13 440.29 182.55 462.17 206.08 C 451.13 215.97 441.08 200.72 429.35 199.68 C 416.03 196.52 408.08 179.11 393.12 183.78 C 383.28 188.33 377.89 198.52 369.27 204.67 C 359.55 206.09 354.05 195.02 345.10 192.93 C 347.81 198.88 352.86 203.31 357.33 207.94 C 350.83 210.14 358.64 215.46 360.05 218.91 C 368.13 230.09 384.40 237.30 386.47 252.11 C 382.65 249.92 377.47 248.30 375.04 244.84 C 372.86 232.52 359.42 227.37 348.82 224.43 C 333.63 219.92 336.10 199.35 345.84 190.50 C 345.58 183.53 351.41 190.80 351.05 183.01 C 345.38 180.03 339.70 176.47 332.99 176.72 C 336.42 173.17 339.84 169.61 343.22 166.00 C 346.84 169.56 350.45 173.16 354.53 176.21 C 355.30 171.51 355.42 166.61 357.12 162.12 Z" />
</g>
<g id="#9a682fff">
<path fill="#9a682f" opacity="1.00" d=" M 290.38 161.49 C 298.44 164.34 306.13 158.96 314.22 159.74 C 310.41 164.14 306.38 168.35 302.07 172.26 C 282.97 166.06 268.28 181.31 254.39 191.74 C 249.65 191.82 244.22 188.90 239.07 188.00 C 236.47 185.30 241.53 184.08 243.05 182.27 C 246.06 180.58 249.19 179.09 252.45 177.94 C 260.76 179.12 268.96 174.10 269.31 165.16 C 275.47 160.55 282.92 159.17 290.38 161.49 Z" />
</g>
<g id="#b48935ff">
<path fill="#b48935" opacity="1.00" d=" M 180.29 193.31 C 196.88 183.53 212.10 171.62 228.70 161.85 C 230.10 163.58 231.48 165.32 232.97 166.98 C 211.95 182.03 188.98 194.59 169.08 211.08 C 172.25 204.81 176.20 199.01 180.29 193.31 Z" />
</g>
<g id="#eae9e9ff">
<path fill="#eae9e9" opacity="1.00" d=" M 445.65 166.39 C 449.76 161.79 451.42 167.55 453.58 170.70 C 451.36 177.42 448.09 168.80 445.65 166.39 Z" />
</g>
<g id="#caa53eff">
<path fill="#caa53e" opacity="1.00" d=" M 131.69 199.54 C 142.66 184.94 162.74 174.11 179.03 166.73 C 178.97 170.95 178.91 181.34 178.50 182.63 C 178.05 179.51 177.49 176.40 176.14 173.54 C 165.00 181.23 153.54 188.50 142.88 196.85 C 139.09 197.46 135.40 198.54 131.69 199.54 Z" />
</g>
<g id="#ae8134ff">
<path fill="#ae8134" opacity="1.00" d=" M 169.08 211.08 C 188.98 194.59 211.95 182.03 232.97 166.98 C 234.52 168.45 236.22 169.74 238.00 170.92 C 219.31 183.38 197.42 194.30 184.73 213.37 C 165.21 227.44 144.23 240.62 124.21 254.35 C 117.89 257.78 115.96 250.46 115.37 246.07 C 130.63 233.51 147.79 221.31 165.20 212.85 C 166.48 215.02 167.83 211.82 169.08 211.08 Z" />
</g>
<g id="#aa7d33ff">
<path fill="#aa7d33" opacity="1.00" d=" M 184.73 213.37 C 197.42 194.30 219.31 183.38 238.00 170.92 C 243.35 172.29 238.55 176.54 238.00 179.98 C 235.10 175.36 230.83 182.15 228.47 184.59 C 213.71 193.92 199.41 203.93 184.73 213.37 Z" />
</g>
<g id="#905a29ff">
<path fill="#905a29" opacity="1.00" d=" M 254.39 191.74 C 268.28 181.31 282.97 166.06 302.07 172.26 C 293.82 181.02 284.93 189.15 276.76 197.99 C 269.21 196.30 261.57 194.67 254.39 191.74 Z" />
</g>
<g id="#c59e3bff">
<path fill="#c59e3b" opacity="1.00" d=" M 142.88 196.85 C 153.54 188.50 165.00 181.23 176.14 173.54 C 177.49 176.40 178.05 179.51 178.50 182.63 C 163.00 186.66 151.47 200.10 137.21 207.19 C 139.12 203.75 140.88 200.23 142.88 196.85 Z" />
</g>
<g id="#a6783aff">
<path fill="#a6783a" opacity="1.00" d=" M 243.05 182.27 C 244.04 176.15 247.17 174.36 252.45 177.94 C 249.19 179.09 246.06 180.58 243.05 182.27 Z" />
</g>
<g id="#030303ff">
<path fill="#030303" opacity="1.00" d=" M 291.01 219.90 C 304.86 205.67 318.32 190.41 332.99 176.72 C 339.70 176.47 345.38 180.03 351.05 183.01 C 351.41 190.80 345.58 183.53 345.84 190.50 C 336.10 199.35 333.63 219.92 348.82 224.43 C 359.42 227.37 372.86 232.52 375.04 244.84 C 362.31 241.14 352.42 228.96 338.13 231.02 C 336.30 252.58 348.99 270.61 356.17 289.81 C 348.72 290.01 341.27 290.01 333.83 289.91 C 338.01 274.78 334.78 256.14 321.38 246.62 C 316.91 242.18 314.62 231.52 306.29 236.03 C 290.95 244.44 274.06 249.33 256.48 249.14 C 269.39 254.28 285.33 250.37 298.03 244.95 C 290.36 256.93 310.38 275.10 293.28 281.49 C 250.21 285.57 209.10 261.95 165.58 268.21 C 175.74 273.29 187.69 269.87 198.17 273.68 C 177.98 278.87 158.64 287.02 138.27 291.51 C 131.03 292.64 118.37 293.06 115.63 284.32 C 152.47 260.11 190.09 237.08 227.13 213.17 C 229.28 211.29 231.89 213.15 234.16 213.78 C 242.29 225.68 256.92 242.73 272.87 232.84 C 278.43 228.50 292.95 229.95 291.01 219.90 Z" />
</g>
<g id="#a67733ff">
<path fill="#a67733" opacity="1.00" d=" M 228.47 184.59 C 230.83 182.15 235.10 175.36 238.00 179.98 C 239.64 180.83 241.34 181.55 243.05 182.27 C 241.53 184.08 236.47 185.30 239.07 188.00 C 235.47 187.09 231.90 186.02 228.47 184.59 Z" />
</g>
<g id="#bf973aff">
<path fill="#bf973a" opacity="1.00" d=" M 137.21 207.19 C 151.47 200.10 163.00 186.66 178.50 182.63 C 176.93 188.04 174.50 193.13 172.25 198.27 C 171.76 197.15 171.27 196.04 170.79 194.92 C 152.20 206.95 134.03 219.59 115.44 231.60 C 115.29 232.99 114.98 235.77 114.83 237.16 C 114.12 232.51 113.47 227.28 115.96 223.01 C 122.16 216.60 130.32 212.75 137.21 207.19 Z" />
</g>
<g id="#d5b344ff">
<path fill="#d5b344" opacity="1.00" d=" M 105.12 192.10 C 113.15 191.68 121.21 191.27 129.19 190.15 C 126.09 193.38 123.00 196.63 119.95 199.91 C 112.58 200.00 105.22 200.00 97.86 199.91 C 100.29 197.31 102.73 194.73 105.12 192.10 Z" />
</g>
<g id="#d7b44fff">
<path fill="#d7b44f" opacity="1.00" d=" M 39.91 213.17 C 60.23 203.03 80.85 189.81 105.12 192.10 C 102.73 194.73 100.29 197.31 97.86 199.91 C 82.40 199.35 63.71 201.75 54.09 215.20 C 51.35 225.22 44.32 232.62 34.84 236.80 C 37.63 228.99 43.84 222.30 39.91 213.17 Z" />
</g>
<g id="#b78c36ff">
<path fill="#b78c36" opacity="1.00" d=" M 115.44 231.60 C 134.03 219.59 152.20 206.95 170.79 194.92 C 171.27 196.04 171.76 197.15 172.25 198.27 C 169.66 202.84 168.42 209.67 165.20 212.85 C 147.79 221.31 130.63 233.51 115.37 246.07 C 115.21 243.08 114.75 240.14 114.83 237.16 C 114.98 235.77 115.29 232.99 115.44 231.60 Z" />
</g>
<g id="#a07034ff">
<path fill="#a07034" opacity="1.00" d=" M 224.28 199.17 C 226.25 197.71 228.80 198.72 231.09 198.66 C 230.24 200.36 229.39 202.07 228.56 203.78 C 192.06 225.75 157.31 250.56 120.97 272.81 C 120.49 269.18 121.84 266.59 125.02 265.05 C 157.91 242.80 191.17 221.09 224.28 199.17 Z" />
</g>
<g id="#996839ff">
<path fill="#996839" opacity="1.00" d=" M 231.09 198.66 C 240.25 201.71 251.71 203.93 259.81 206.64 C 259.77 208.74 259.77 210.85 259.78 212.96 C 249.23 210.44 238.88 207.10 228.56 203.78 C 229.39 202.07 230.24 200.36 231.09 198.66 Z" />
</g>
<g id="#875027ff">
<path fill="#875027" opacity="1.00" d=" M 413.19 204.02 C 420.77 205.81 428.27 207.98 435.96 209.28 C 434.22 223.46 429.19 236.96 423.72 250.08 C 416.58 246.87 409.73 242.90 403.60 238.03 C 407.59 226.94 411.90 215.84 413.19 204.02 Z" />
</g>
<g id="#c5a044ff">
<path fill="#c5a044" opacity="1.00" d=" M 115.96 223.01 C 118.09 213.04 128.88 210.23 137.21 207.19 C 130.32 212.75 122.16 216.60 115.96 223.01 Z" />
</g>
<g id="#1b1b1bff">
<path fill="#1b1b1b" opacity="1.00" d=" M 357.33 207.94 C 371.91 222.70 391.86 232.07 402.43 250.56 C 410.29 262.48 421.91 271.78 428.70 284.29 C 415.72 281.43 412.36 261.65 398.87 263.61 C 395.34 260.22 390.01 255.74 386.47 252.11 C 384.40 237.30 368.13 230.09 360.05 218.91 C 358.64 215.46 350.83 210.14 357.33 207.94 Z" />
</g>
<g id="#161616ff">
<path fill="#161616" opacity="1.00" d=" M 234.16 213.78 C 250.82 217.51 267.18 222.50 283.84 226.22 C 286.22 224.10 288.60 221.99 291.01 219.90 C 292.95 229.95 278.43 228.50 272.87 232.84 C 256.92 242.73 242.29 225.68 234.16 213.78 Z" />
</g>
<g id="#0b0b0bff">
<path fill="#0b0b0b" opacity="1.00" d=" M 398.87 263.61 C 412.36 261.65 415.72 281.43 428.70 284.29 C 438.81 294.54 411.14 286.50 406.05 288.84 C 406.26 279.88 405.63 270.24 398.87 263.61 Z" />
</g>
<g id="#814723ff">
<path fill="#814723" opacity="1.00" d=" M 321.95 316.92 C 343.92 307.49 363.72 293.51 379.87 275.81 C 385.84 280.72 391.95 285.45 398.06 290.18 C 369.54 323.47 328.08 345.89 284.18 349.23 C 282.61 348.90 281.06 348.53 279.51 348.12 C 292.09 335.86 306.12 324.63 321.95 316.92 Z" />
</g>
<g id="#af8234ff">
<path fill="#af8234" opacity="1.00" d=" M 162.12 295.02 C 168.06 292.71 174.61 289.96 178.87 296.71 C 171.59 300.44 165.15 305.64 159.90 311.90 C 157.55 309.87 155.21 307.84 152.83 305.86 C 155.74 302.08 158.87 298.49 162.12 295.02 Z" />
</g>
<g id="#b58c3fff">
<path fill="#b58c3f" opacity="1.00" d=" M 152.83 305.86 C 138.78 298.01 154.43 297.27 162.12 295.02 C 158.87 298.49 155.74 302.08 152.83 305.86 Z" />
</g>
<g id="#a87a32ff">
<path fill="#a87a32" opacity="1.00" d=" M 159.90 311.90 C 165.15 305.64 171.59 300.44 178.87 296.71 C 183.92 300.00 189.03 303.22 193.94 306.73 C 186.68 310.90 179.37 315.54 174.88 322.85 C 169.64 319.54 164.58 315.95 159.90 311.90 Z" />
</g>
<g id="#a2732fff">
<path fill="#a2732f" opacity="1.00" d=" M 174.88 322.85 C 179.37 315.54 186.68 310.90 193.94 306.73 C 197.92 308.93 202.09 310.75 206.24 312.60 C 198.11 316.43 191.39 322.80 184.86 328.88 C 181.55 326.83 178.25 324.78 174.88 322.85 Z" />
</g>
<g id="#9e6c2eff">
<path fill="#9e6c2e" opacity="1.00" d=" M 184.86 328.88 C 191.39 322.80 198.11 316.43 206.24 312.60 C 210.11 314.54 214.20 316.00 218.09 317.89 C 210.93 323.01 204.79 329.35 198.92 335.88 C 194.21 333.60 189.48 331.34 184.86 328.88 Z" />
</g>
<g id="#885026ff">
<path fill="#885026" opacity="1.00" d=" M 280.21 326.25 C 294.47 324.92 308.33 321.21 321.95 316.92 C 306.12 324.63 292.09 335.86 279.51 348.12 C 281.06 348.53 282.61 348.90 284.18 349.23 C 272.15 350.46 259.86 350.73 247.86 348.97 C 253.20 339.16 266.05 325.10 280.21 326.25 Z" />
</g>
<g id="#98652cff">
<path fill="#98652c" opacity="1.00" d=" M 218.09 317.89 C 223.63 319.50 229.26 321.09 234.68 322.93 C 227.03 328.19 219.82 334.08 213.63 341.02 C 208.60 340.42 203.79 337.44 198.92 335.88 C 204.79 329.35 210.93 323.01 218.09 317.89 Z" />
</g>
<g id="#935e2aff">
<path fill="#935e2a" opacity="1.00" d=" M 213.63 341.02 C 219.82 334.08 227.03 328.19 234.68 322.93 C 238.51 323.59 242.48 323.60 246.13 325.10 C 239.72 331.88 233.02 338.36 226.62 345.14 C 222.09 344.48 217.76 342.96 213.63 341.02 Z" />
</g>
<g id="#8f5a2bff">
<path fill="#8f5a2b" opacity="1.00" d=" M 246.13 325.10 C 257.41 326.69 268.85 325.71 280.21 326.25 C 266.05 325.10 253.20 339.16 247.86 348.97 C 240.63 348.79 233.59 346.88 226.62 345.14 C 233.02 338.36 239.72 331.88 246.13 325.10 Z" />
</g>
</g>
<g transform="translate(-11,-108) scale(0.33)">

<g id="#ffffffff">
<path fill="#f3f3f3" stroke="#25233c" opacity="1.00" d=" M 55.33 403.92 C 78.34 398.80 103.00 418.21 92.11 442.43 C 82.37 447.61 103.37 454.28 99.07 464.85 C 95.91 479.79 77.92 485.77 67.00 486.00 C 59.06 487.85 40.83 490.29 43.00 477.00 C 42.37 461.04 43.83 447.16 44.00 432.00 C 45.88 421.55 40.06 402.46 55.33 403.92 M 61.00 420.00 C 62.59 427.55 57.52 433.94 61.16 440.94 C 68.95 441.18 78.07 435.29 78.00 429.00 C 76.83 423.87 67.36 418.94 61.00 420.00 M 59.30 456.91 C 50.96 476.99 74.28 471.15 80.98 462.96 C 76.00 458.47 66.62 456.75 59.30 456.91 Z" />
<path fill="#f3f3f3" stroke="#25233c" opacity="1.00" d=" M 193.00 404.00 C 211.92 401.11 236.30 411.48 241.00 429.00 C 246.22 440.08 237.89 451.94 228.10 457.30 C 233.26 463.48 248.62 468.45 246.00 479.00 C 246.30 485.11 236.31 487.65 231.78 482.35 C 223.60 474.32 212.81 467.73 203.07 463.83 C 203.58 474.57 206.06 489.86 191.00 486.00 C 184.52 471.53 186.35 452.48 187.00 435.00 C 190.97 426.60 183.02 408.74 193.00 404.00 M 204.00 421.00 C 208.17 429.58 195.28 449.25 210.00 446.00 C 215.04 444.93 231.57 440.16 222.72 430.35 C 218.34 424.72 210.80 420.83 204.00 421.00 Z" />
<path fill="#f3f3f3" stroke="#25233c" opacity="1.00" d=" M 400.00 404.00 C 404.69 403.64 407.49 403.72 410.37 405.62 C 423.73 425.02 436.92 444.61 453.84 461.19 C 454.09 446.13 453.55 431.51 451.00 419.00 C 447.99 413.34 449.71 401.47 459.00 404.00 C 468.44 403.55 467.57 415.96 470.00 423.00 C 469.32 442.32 471.35 464.35 469.00 482.00 C 468.15 487.40 459.20 488.96 454.13 485.11 C 438.03 471.65 426.17 453.24 413.00 438.00 C 412.18 453.18 414.58 471.58 412.00 485.00 C 408.22 494.01 389.26 487.08 395.98 474.97 C 401.84 452.63 390.19 423.82 400.00 404.00 Z" />
<path fill="#f3f3f3" stroke="#25233c" opacity="1.00" d=" M 138.00 406.00 C 154.88 405.39 166.38 405.48 177.00 420.00 C 183.20 439.77 181.47 463.66 162.24 480.27 C 144.32 494.25 112.81 487.10 106.00 464.00 C 99.11 442.36 114.55 411.47 138.00 406.00 M 143.00 422.00 C 127.30 426.37 110.51 454.84 130.13 467.91 C 140.61 475.08 156.41 468.75 160.00 454.00 C 169.15 444.33 162.44 415.71 143.00 422.00 Z" />
<path fill="#f3f3f3" stroke="#25233c" opacity="1.00" d=" M 254.00 406.00 C 274.40 406.22 290.79 407.19 311.00 406.00 C 319.80 404.89 322.58 420.89 312.68 423.63 C 295.66 435.20 286.82 454.49 273.06 469.22 C 286.59 475.17 320.34 459.94 319.00 483.00 C 311.99 492.99 292.20 481.32 282.00 487.00 C 269.84 484.63 243.82 494.96 249.00 474.00 C 261.02 456.30 273.39 437.76 288.00 422.00 C 276.33 422.00 264.66 422.00 253.00 422.00 C 248.02 417.51 249.06 408.38 254.00 406.00 Z" />
<path fill="#f3f3f3" stroke="#25233c" opacity="1.00" d=" M 359.00 408.00 C 372.68 405.22 371.43 418.37 373.00 427.00 C 377.26 440.23 379.87 460.25 385.00 472.00 C 393.36 486.94 369.49 488.80 368.00 476.00 C 365.93 469.25 365.63 453.67 356.00 462.00 C 342.75 459.09 340.62 474.28 333.74 483.89 C 311.77 491.11 325.51 461.37 329.57 450.52 C 340.83 436.59 345.31 420.59 359.00 408.00 Z" />
</g>
</g>
</svg>
